<svg width="512" height="512" viewBox="0 0 512 512" xmlns="http://www.w3.org/2000/svg">
	<defs>
		<clipPath clipPathUnits="userSpaceOnUse" id="flag">
			<path d="m0 135c0-35.35 28.65-64 64-64h384c35.35 0 64 28.65 64 64v242c0 35.35-28.65 64-64 64h-384c-35.35 0-64-28.65-64-64z"/>
		</clipPath>
	</defs>
	<g clip-path="url(#flag)">
		<path fill="#5bcffa" d="m0 229h512v53h-512z"/>
		<path fill="#efefef" d="m0 177h512v53h-512zm0 105h512v53h-512z"/>
		<path fill="#ef9dea" d="m0 124h512v53h-512zm0 211h512v53h-512z"/>
		<path fill="#d9578f" d="m0 71h512v53h-512zm0 317h512v53h-512z"/>
	</g>
</svg>

